<svg xmlns="http://www.w3.org/2000/svg" viewBox="0 0 64 64" role="img" aria-labelledby="title">
  <title id="title">PostgreSQL</title>
  <path fill="#e7e7ea" d="M47.2 14.5c-5.5-5.5-18.2-4.4-25.9 1.1-7.7 5.5-11 17.7-6.6 27.4 2.4 5.3 7.6 7.7 13.1 5.4l1.1 7.6c.3 2 2.4 3 4.1 2 3.7-2 5-5.6 5.5-9.4l.2-1.5c6.2.7 12-1.3 14.8-6.3 4.4-8.1 1.3-21.8-6.3-26.3Zm-10.4 27.7c-.9-.1-1.7.5-1.8 1.4l-.7 5.2c-.3 2.2-.9 4-2.2 5.3l-1.2-9.2c-.1-1-1.1-1.6-2-1.3-4.5 1.5-7.8.2-9.4-3.7-3.2-7.7-.5-16.9 5.8-21.3 5.9-4.1 16.1-4.8 20-.9 5.2 5.2 7.7 16.4 4.2 22.8-2 3.5-6.8 4.9-12.7 4Z"/>
  <circle cx="25" cy="29" r="3.4" fill="#111016"/>
  <circle cx="42" cy="28" r="3.4" fill="#111016"/>
</svg>
