<svg xmlns="http://www.w3.org/2000/svg" viewBox="0 0 64 64" role="img" aria-labelledby="title">
  <title id="title">Rust</title>
  <circle cx="32" cy="32" r="24" fill="#e7e7ea"/>
  <circle cx="32" cy="32" r="16" fill="#111016"/>
  <path fill="#e7e7ea" d="M20 21h16c5.6 0 9.2 3.1 9.2 8 0 3.4-1.8 5.9-4.8 7.1l5.8 8.9h-8.5l-4.9-7.8h-5.1V45H20zm7.7 6.2v4.4h7.1c1.7 0 2.8-.8 2.8-2.2s-1.1-2.2-2.8-2.2z"/>
  <g fill="#e7e7ea">
    <rect x="29" y="1" width="6" height="11" rx="2"/>
    <rect x="29" y="52" width="6" height="11" rx="2"/>
    <rect x="52" y="29" width="11" height="6" rx="2"/>
    <rect x="1" y="29" width="11" height="6" rx="2"/>
  </g>
</svg>
