<svg xmlns="http://www.w3.org/2000/svg" viewBox="0 0 64 64" role="img" aria-labelledby="title">
  <title id="title">Tailwind CSS</title>
  <path fill="#e7e7ea" d="M32 18c-7 0-11.3 3.5-13 10.5 2.6-3.5 5.6-4.8 9.1-3.9 2 .5 3.4 1.9 4.9 3.5 2.5 2.6 5.4 5.6 12 5.6 7 0 11.3-3.5 13-10.5-2.6 3.5-5.6 4.8-9.1 3.9-2-.5-3.4-1.9-4.9-3.5-2.5-2.6-5.4-5.6-12-5.6ZM19 33.7c-7 0-11.3 3.5-13 10.5 2.6-3.5 5.6-4.8 9.1-3.9 2 .5 3.4 1.9 4.9 3.5 2.5 2.6 5.4 5.6 12 5.6 7 0 11.3-3.5 13-10.5-2.6 3.5-5.6 4.8-9.1 3.9-2-.5-3.4-1.9-4.9-3.5-2.5-2.6-5.4-5.6-12-5.6Z"/>
</svg>
