<svg xmlns="http://www.w3.org/2000/svg" viewBox="0 0 64 64" role="img" aria-labelledby="title">
  <title id="title">TypeScript</title>
  <path fill="#e7e7ea" d="M9 17h31v7H28.2v28h-7.4V24H9zm38 35.6a20 20 0 0 1-9.4-2.5v-7a17.4 17.4 0 0 0 9.3 3.2c2.4 0 3.6-.8 3.6-2.4 0-.8-.4-1.5-1.2-2s-2.3-1.2-4.5-2.1c-4.4-1.9-6.6-4.7-6.6-8.3 0-2.9 1.1-5.2 3.3-6.9s5.2-2.5 8.9-2.5c3 0 5.7.6 8 1.8v6.5a15 15 0 0 0-7.6-2.2c-2.1 0-3.2.8-3.2 2.3 0 .8.4 1.4 1.1 1.9s2.1 1.1 4.2 2c4.7 1.9 7 4.8 7 8.6 0 3-1.1 5.3-3.4 7s-5.5 2.6-9.5 2.6z"/>
</svg>
